# xmcd
#
# Track frame offsets:
# 150
# 11927
# 24652
# 33755
# 45960
# 61242
# 71565
# 85722
# 98845
# 112892
# 129205
# 139742
# 159855
#
# Disc length: 2352 seconds
#
#
# Revision: 0
# Processed by: cddbd v1.4PL0 Copyright (c) Steve Scherf et al.
# Submitted via: FreeRIP 2.30 
#
DISCID=95092e0d
DTITLE=Two Dollar Pistols - ...Step Right Up!
DYEAR=1998
DGENRE=Country
TTITLE0=Heartaches and Hangovers
TTITLE1=Lonely Avenue
TTITLE2=Hello Trouble
TTITLE3=You're Still On My Mind
TTITLE4='Til You Did Wrong By Me
TTITLE5=Honky Tonkitis
TTITLE6=Me, Myself, and Wine
TTITLE7=Serious Heart Condition
TTITLE8=A Wound Time Can't Erase
TTITLE9=How It Feels To Die
TTITLE10=Bring The Heartbreak
TTITLE11=Thanks Alot
TTITLE12=Wine Me Up
EXTD=
EXTT0=
EXTT1=
EXTT2=
EXTT3=
EXTT4=
EXTT5=
EXTT6=
EXTT7=
EXTT8=
EXTT9=
EXTT10=
EXTT11=
EXTT12=
PLAYORDER=
